<?xml version="1.0" encoding="iso-8859-1"?>
<!-- Generator: Adobe Illustrator 19.0.0, SVG Export Plug-In . SVG Version: 6.00 Build 0)  -->
<svg version="1.1" id="Capa_1" xmlns="http://www.w3.org/2000/svg" xmlns:xlink="http://www.w3.org/1999/xlink" x="0px" y="0px"
	 viewBox="0 0 345.861 345.861" style="enable-background:new 0 0 345.861 345.861;" xml:space="preserve">
<g>
	<polygon style="fill:#00EFD1;" points="272.196,238.237 172.931,335.412 73.665,238.237 131.135,238.237 131.135,104.49 
		214.727,104.49 214.727,238.237 	"/>
	<g>
		<path style="fill:#083863;" d="M172.931,345.861c-2.756-0.039-5.385-1.166-7.314-3.135l-99.265-97.176
			c-3.155-2.928-4.192-7.49-2.612-11.494c1.911-3.75,5.719-6.155,9.927-6.269h47.02V104.49c0-5.771,4.678-10.449,10.449-10.449
			h83.592c5.771,0,10.449,4.678,10.449,10.449v123.298h47.02c4.207,0.115,8.015,2.52,9.927,6.269
			c1.58,4.004,0.543,8.566-2.612,11.494l-99.265,97.176C178.316,344.695,175.687,345.822,172.931,345.861z M99.265,248.686
			l73.665,72.098l73.665-72.098h-31.869c-5.771,0-10.449-4.678-10.449-10.449V114.939h-62.694v123.298
			c0,5.771-4.678,10.449-10.449,10.449H99.265z"/>
		<path style="fill:#083863;" d="M214.727,83.592h-83.592c-5.771,0-10.449-4.678-10.449-10.449c0-5.771,4.678-10.449,10.449-10.449
			h83.592c5.771,0,10.449,4.678,10.449,10.449C225.176,78.914,220.497,83.592,214.727,83.592z"/>
		<path style="fill:#083863;" d="M214.727,52.245h-83.592c-5.771,0-10.449-4.678-10.449-10.449s4.678-10.449,10.449-10.449h83.592
			c5.771,0,10.449,4.678,10.449,10.449S220.497,52.245,214.727,52.245z"/>
		<path style="fill:#083863;" d="M214.727,20.898h-83.592c-5.771,0-10.449-4.678-10.449-10.449S125.364,0,131.135,0h83.592
			c5.771,0,10.449,4.678,10.449,10.449S220.497,20.898,214.727,20.898z"/>
	</g>
</g>
<g>
</g>
<g>
</g>
<g>
</g>
<g>
</g>
<g>
</g>
<g>
</g>
<g>
</g>
<g>
</g>
<g>
</g>
<g>
</g>
<g>
</g>
<g>
</g>
<g>
</g>
<g>
</g>
<g>
</g>
</svg>
