<svg id="Layer_1" enable-background="new 0 0 512 512" height="512" viewBox="0 0 512 512" width="512" xmlns="http://www.w3.org/2000/svg"><g><path d="m363.58 50.01v411.98c0 27.58-22.45 50.01-50.03 50.01h-215.1c-27.58 0-50.03-22.43-50.03-50.01v-411.98c0-27.58 22.45-50.01 50.03-50.01h215.1c27.58 0 50.03 22.43 50.03 50.01z" fill="#56788b"/><path d="m363.58 50.01v411.98c0 27.58-22.45 50.01-50.03 50.01h-215.1c-27.58 0-50.03-22.43-50.03-50.01v-27.8c0 27.57 22.45 50 50.03 50h185.08c27.59 0 50.03-22.43 50.03-50v-384.18c0-27.58-22.44-50.01-50.03-50.01h30.02c27.58 0 50.03 22.43 50.03 50.01z" fill="#415e6f"/><path d="m333.56 49.52v412.96c0 11.59-9.43 21.02-21.02 21.02h-213.08c-11.59 0-21.02-9.43-21.02-21.02v-412.96c0-11.59 9.43-21.02 21.02-21.02h36c4.14 0 7.5 3.36 7.5 7.5 0 5.98 4.87 10.85 10.86 10.85h104.36c5.99 0 10.86-4.87 10.86-10.85 0-4.14 3.36-7.5 7.5-7.5h36c11.59 0 21.02 9.43 21.02 21.02z" fill="#fdeda5"/><g><path d="m333.56 49.52v412.96c0 11.609-9.411 21.02-21.02 21.02h-213.08c-11.609 0-21.02-9.411-21.02-21.02v-30c0 11.59 9.43 21.02 21.02 21.02h147.29c13.57 0 19.77-16.93 9.41-25.69l-26.749-22.631c-3.113-2.634-7.058-4.079-11.135-4.079h-43.866c-30.922 0-55.99-25.068-55.99-55.99v-221.77c0-30.922 25.068-55.99 55.99-55.99h111.32c9.847 0 17.83-7.983 17.83-17.83 0-11.59-9.43-21.02-21.02-21.02h30c11.609 0 21.02 9.411 21.02 21.02z" fill="#fbdf63"/></g><path d="m248.175 438.5h-84.35c-4.142 0-7.5 3.358-7.5 7.5s3.358 7.5 7.5 7.5h84.35c4.142 0 7.5-3.358 7.5-7.5s-3.358-7.5-7.5-7.5z" fill="#56788b"/><path d="m463.58 123.34v221.77c0 14.33-11.66 25.99-25.99 25.99h-61.23l-65.5 55.81c-1.4 1.19-3.13 1.79-4.86 1.79s-3.46-.6-4.86-1.79l-65.5-55.81h-61.23c-14.33 0-25.99-11.66-25.99-25.99v-221.77c0-14.33 11.66-25.99 25.99-25.99h263.18c14.33 0 25.99 11.66 25.99 25.99z" fill="#ed2061"/><g><path d="m295.744 132.231c-4.142 0-7.5 3.358-7.5 7.5v48.037c0 9.778-6.27 18.119-15 21.215v-69.252c0-4.142-3.358-7.5-7.5-7.5s-7.5 3.358-7.5 7.5v69.252c-8.73-3.095-15-11.436-15-21.215v-48.037c0-4.142-3.358-7.5-7.5-7.5s-7.5 3.358-7.5 7.5v48.037c0 18.11 12.904 33.262 30 36.746v20.518h15v-20.518c17.096-3.484 30-18.636 30-36.746v-48.037c0-4.142-3.358-7.5-7.5-7.5z" fill="#fff"/><path d="m265.744 237.532c-12.407 0-22.5 10.093-22.5 22.5v59.288c0 12.407 10.093 22.5 22.5 22.5s22.5-10.093 22.5-22.5v-59.288c0-12.407-10.094-22.5-22.5-22.5z" fill="#fbdf63"/></g><path d="m376.256 132.231c-26.191 0-47.5 21.308-47.5 47.5v58.038c0 4.142 3.358 7.5 7.5 7.5h12.5v19.764h15v-19.764h12.5c4.142 0 7.5-3.358 7.5-7.5v-98.037c0-4.143-3.358-7.501-7.5-7.501z" fill="#fff"/><path d="m356.256 257.532c-12.407 0-22.5 10.093-22.5 22.5v39.288c0 12.407 10.093 22.5 22.5 22.5s22.5-10.093 22.5-22.5v-39.288c0-12.407-10.093-22.5-22.5-22.5z" fill="#fbdf63"/><path d="m463.58 123.34v221.77c0 14.33-11.66 25.99-25.99 25.99h-30c14.33 0 25.99-11.66 25.99-25.99v-221.77c0-14.33-11.66-25.99-25.99-25.99h30c14.33 0 25.99 11.66 25.99 25.99z" fill="#c71e54"/></g></svg>