<svg id="Capa_1" enable-background="new 0 0 512 512" height="512" viewBox="0 0 512 512" width="512" xmlns="http://www.w3.org/2000/svg"><g><g><path d="m307.599 9.715h-262.932c-20.527 0-37.167 16.64-37.167 37.167v206.12c0 20.527 16.64 37.167 37.167 37.167h37.062v38.889c0 14.007 15.6 22.372 27.267 14.62l80.537-53.509h118.067c20.527 0 37.167-16.64 37.167-37.167v-206.12c-.001-20.527-16.641-37.167-37.168-37.167z" fill="#dd5790"/><path d="m84.902 290.161h-40.243c-20.52 0-37.159-16.639-37.159-37.159v-206.12c0-20.53 16.639-37.169 37.159-37.169h40.243c-20.53 0-37.169 16.639-37.169 37.169v206.12c0 20.52 16.639 37.159 37.169 37.159z" fill="#da387d"/><path d="m204.401 165.384h262.932c20.527 0 37.167 16.64 37.167 37.167v206.12c0 20.527-16.64 37.167-37.167 37.167h-37.062v38.889c0 14.007-15.6 22.372-27.267 14.62l-80.537-53.509h-118.066c-20.527 0-37.167-16.64-37.167-37.167v-206.12c0-20.526 16.64-37.167 37.167-37.167z" fill="#f9f6f9"/><path d="m244.636 445.83h-40.243c-20.52 0-37.159-16.639-37.159-37.159v-206.12c0-20.53 16.639-37.169 37.159-37.169h40.243c-20.53 0-37.169 16.639-37.169 37.169v206.12c0 20.52 16.639 37.159 37.169 37.159z" fill="#dddaec"/><g><path d="m372.148 364.297h-9.006v-44.032-15.286c0-7.751-6.283-14.034-14.034-14.034h-49.522c-8.096 0-14.66 6.563-14.66 14.66 0 8.096 6.563 14.66 14.66 14.66h12.685v44.032h-12.685c-8.096 0-14.66 6.563-14.66 14.66 0 8.096 6.563 14.66 14.66 14.66h72.562c8.096 0 14.66-6.563 14.66-14.66 0-8.097-6.564-14.66-14.66-14.66z" fill="#9dc6fb"/><path d="m328.972 320.263v44.026h-12.689c-8.098 0-14.659 6.571-14.659 14.669 0 4.039 1.645 7.704 4.295 10.364 2.65 2.65 6.315 4.295 10.364 4.295h-16.698c-4.049 0-7.714-1.645-10.364-4.295-2.66-2.66-4.295-6.325-4.295-10.364 0-8.098 6.561-14.669 14.659-14.669h12.689v-44.026h-12.689c-4.049 0-7.714-1.635-10.364-4.295-2.66-2.65-4.295-6.315-4.295-10.364 0-8.098 6.561-14.659 14.659-14.659h16.698c-8.098 0-14.659 6.561-14.659 14.659 0 4.049 1.645 7.714 4.295 10.364 2.65 2.66 6.315 4.295 10.364 4.295z" fill="#80b4fb"/><circle cx="337.707" cy="243.032" fill="#9dc6fb" r="25.435"/><path d="m346.426 266.932c-2.719.995-5.655 1.537-8.718 1.537-14.048 0-25.436-11.388-25.436-25.436s11.388-25.436 25.436-25.436c3.064 0 5.999.542 8.718 1.537-9.753 3.556-16.718 12.915-16.718 23.899s6.965 20.342 16.718 23.899z" fill="#80b4fb"/></g></g><g><path d="m59.91 90.363h215.239c4.143 0 7.5-3.358 7.5-7.5s-3.357-7.5-7.5-7.5h-215.239c-4.143 0-7.5 3.358-7.5 7.5s3.358 7.5 7.5 7.5z"/><path d="m59.91 144.162h215.239c4.143 0 7.5-3.358 7.5-7.5s-3.357-7.5-7.5-7.5h-215.239c-4.143 0-7.5 3.358-7.5 7.5s3.358 7.5 7.5 7.5z"/><path d="m467.33 157.881h-115.06v-111c0-24.631-20.039-44.67-44.67-44.67h-262.93c-24.631 0-44.67 20.039-44.67 44.67v160.1c0 4.142 3.357 7.5 7.5 7.5s7.5-3.358 7.5-7.5v-160.1c0-16.36 13.31-29.67 29.67-29.67h262.93c16.36 0 29.67 13.31 29.67 29.67v111h-132.87c-17.606 0-32.861 10.242-40.133 25.077h-104.358c-4.143 0-7.5 3.358-7.5 7.5s3.357 7.5 7.5 7.5h100.056c-.155 1.51-.235 3.042-.235 4.593v98.409l-54.877 36.471c-3.145 2.086-7.004 2.268-10.324.486-3.318-1.78-5.299-5.091-5.299-8.856v-38.9c0-4.142-3.357-7.5-7.5-7.5h-37.06c-16.36 0-29.67-13.305-29.67-29.66v-16.02c0-4.142-3.357-7.5-7.5-7.5s-7.5 3.358-7.5 7.5v16.02c0 24.625 20.039 44.66 44.67 44.66h29.56v31.4c0 9.245 5.061 17.703 13.207 22.074 3.717 1.994 7.786 2.983 11.847 2.983 4.843 0 9.672-1.406 13.867-4.19l46.579-30.956v89.7c0 24.631 20.039 44.67 44.67 44.67h115.804l26.004 17.286c3.451 2.293 8.105 1.356 10.398-2.094 2.293-3.449 1.355-8.105-2.094-10.398l-27.891-18.54c-1.23-.818-2.675-1.254-4.152-1.254h-118.069c-16.36 0-29.67-13.31-29.67-29.67v-206.12c0-16.36 13.31-29.67 29.67-29.67h262.93c16.36 0 29.67 13.31 29.67 29.67v206.12c0 16.36-13.31 29.67-29.67 29.67h-37.06c-4.143 0-7.5 3.358-7.5 7.5v38.89c0 3.765-1.982 7.076-5.303 8.857-3.322 1.781-7.178 1.6-10.316-.483l-27.659-18.38c-3.453-2.293-8.105-1.354-10.398 2.096-2.292 3.45-1.354 8.105 2.097 10.397l27.661 18.381c4.191 2.783 9.017 4.189 13.859 4.189 4.059 0 8.13-.989 11.847-2.982 8.149-4.371 13.213-12.83 13.213-22.075v-31.39h29.561c24.631 0 44.67-20.039 44.67-44.67v-206.12c-.002-24.632-20.041-44.671-44.672-44.671z"/><path d="m299.586 356.797c-12.219 0-22.159 9.941-22.159 22.16s9.94 22.16 22.159 22.16h72.562c12.219 0 22.16-9.941 22.16-22.16s-9.941-22.16-22.16-22.16h-1.506v-51.818c0-11.874-9.66-21.534-21.533-21.534h-49.522c-12.219 0-22.159 9.941-22.159 22.16s9.94 22.16 22.159 22.16h5.186v29.032zm12.685-44.032h-12.686c-3.947 0-7.159-3.212-7.159-7.16s3.212-7.16 7.159-7.16h49.522c3.603 0 6.533 2.931 6.533 6.534v59.318c0 4.142 3.357 7.5 7.5 7.5h9.006c3.948 0 7.16 3.212 7.16 7.16s-3.212 7.16-7.16 7.16h-72.562c-3.947 0-7.159-3.212-7.159-7.16s3.212-7.16 7.159-7.16h12.686c4.143 0 7.5-3.358 7.5-7.5v-44.032c.001-4.142-3.356-7.5-7.499-7.5z"/><path d="m370.642 243.032c0-18.161-14.774-32.935-32.935-32.935s-32.936 14.775-32.936 32.935 14.774 32.936 32.936 32.936c18.16 0 32.935-14.775 32.935-32.936zm-50.871 0c0-9.89 8.046-17.935 17.936-17.935 9.889 0 17.935 8.046 17.935 17.935s-8.046 17.936-17.935 17.936c-9.89 0-17.936-8.046-17.936-17.936z"/></g></g></svg>