<svg id="visual" viewBox="0 0 540 960" width="540" height="960" xmlns="http://www.w3.org/2000/svg" xmlns:xlink="http://www.w3.org/1999/xlink" version="1.1"><path d="M0 164L8.2 160.8C16.3 157.7 32.7 151.3 49 151.3C65.3 151.3 81.7 157.7 98 160.8C114.3 164 130.7 164 147 149.7C163.3 135.3 179.7 106.7 196 92.3C212.3 78 228.7 78 245.2 92.3C261.7 106.7 278.3 135.3 294.8 140.2C311.3 145 327.7 126 344 114.8C360.3 103.7 376.7 100.3 393 106.7C409.3 113 425.7 129 442 124.2C458.3 119.3 474.7 93.7 491 79.3C507.3 65 523.7 62 531.8 60.5L540 59L540 0L531.8 0C523.7 0 507.3 0 491 0C474.7 0 458.3 0 442 0C425.7 0 409.3 0 393 0C376.7 0 360.3 0 344 0C327.7 0 311.3 0 294.8 0C278.3 0 261.7 0 245.2 0C228.7 0 212.3 0 196 0C179.7 0 163.3 0 147 0C130.7 0 114.3 0 98 0C81.7 0 65.3 0 49 0C32.7 0 16.3 0 8.2 0L0 0Z" fill="#ca6fff"></path><path d="M0 347L8.2 335.7C16.3 324.3 32.7 301.7 49 293.7C65.3 285.7 81.7 292.3 98 287.7C114.3 283 130.7 267 147 251C163.3 235 179.7 219 196 203C212.3 187 228.7 171 245.2 187C261.7 203 278.3 251 294.8 259C311.3 267 327.7 235 344 222.2C360.3 209.3 376.7 215.7 393 234.8C409.3 254 425.7 286 442 281.2C458.3 276.3 474.7 234.7 491 225C507.3 215.3 523.7 237.7 531.8 248.8L540 260L540 57L531.8 58.5C523.7 60 507.3 63 491 77.3C474.7 91.7 458.3 117.3 442 122.2C425.7 127 409.3 111 393 104.7C376.7 98.3 360.3 101.7 344 112.8C327.7 124 311.3 143 294.8 138.2C278.3 133.3 261.7 104.7 245.2 90.3C228.7 76 212.3 76 196 90.3C179.7 104.7 163.3 133.3 147 147.7C130.7 162 114.3 162 98 158.8C81.7 155.7 65.3 149.3 49 149.3C32.7 149.3 16.3 155.7 8.2 158.8L0 162Z" fill="#bb49ff"></path><path d="M0 510L8.2 516.3C16.3 522.7 32.7 535.3 49 535.3C65.3 535.3 81.7 522.7 98 535.5C114.3 548.3 130.7 586.7 147 569C163.3 551.3 179.7 477.7 196 447.3C212.3 417 228.7 430 245.2 433.2C261.7 436.3 278.3 429.7 294.8 424.8C311.3 420 327.7 417 344 421.8C360.3 426.7 376.7 439.3 393 453.7C409.3 468 425.7 484 442 501.7C458.3 519.3 474.7 538.7 491 521.2C507.3 503.7 523.7 449.3 531.8 422.2L540 395L540 258L531.8 246.8C523.7 235.7 507.3 213.3 491 223C474.7 232.7 458.3 274.3 442 279.2C425.7 284 409.3 252 393 232.8C376.7 213.7 360.3 207.3 344 220.2C327.7 233 311.3 265 294.8 257C278.3 249 261.7 201 245.2 185C228.7 169 212.3 185 196 201C179.7 217 163.3 233 147 249C130.7 265 114.3 281 98 285.7C81.7 290.3 65.3 283.7 49 291.7C32.7 299.7 16.3 322.3 8.2 333.7L0 345Z" fill="#aa00ff"></path><path d="M0 827L8.2 836.5C16.3 846 32.7 865 49 869.7C65.3 874.3 81.7 864.7 98 848.7C114.3 832.7 130.7 810.3 147 807.2C163.3 804 179.7 820 196 807.2C212.3 794.3 228.7 752.7 245.2 744.7C261.7 736.7 278.3 762.3 294.8 765.7C311.3 769 327.7 750 344 742C360.3 734 376.7 737 393 745C409.3 753 425.7 766 442 777.2C458.3 788.3 474.7 797.7 491 802.3C507.3 807 523.7 807 531.8 807L540 807L540 393L531.8 420.2C523.7 447.3 507.3 501.7 491 519.2C474.7 536.7 458.3 517.3 442 499.7C425.7 482 409.3 466 393 451.7C376.7 437.3 360.3 424.7 344 419.8C327.7 415 311.3 418 294.8 422.8C278.3 427.7 261.7 434.3 245.2 431.2C228.7 428 212.3 415 196 445.3C179.7 475.7 163.3 549.3 147 567C130.7 584.7 114.3 546.3 98 533.5C81.7 520.7 65.3 533.3 49 533.3C32.7 533.3 16.3 520.7 8.2 514.3L0 508Z" fill="#9400dc"></path><path d="M0 961L8.2 961C16.3 961 32.7 961 49 961C65.3 961 81.7 961 98 961C114.3 961 130.7 961 147 961C163.3 961 179.7 961 196 961C212.3 961 228.7 961 245.2 961C261.7 961 278.3 961 294.8 961C311.3 961 327.7 961 344 961C360.3 961 376.7 961 393 961C409.3 961 425.7 961 442 961C458.3 961 474.7 961 491 961C507.3 961 523.7 961 531.8 961L540 961L540 805L531.8 805C523.7 805 507.3 805 491 800.3C474.7 795.7 458.3 786.3 442 775.2C425.7 764 409.3 751 393 743C376.7 735 360.3 732 344 740C327.7 748 311.3 767 294.8 763.7C278.3 760.3 261.7 734.7 245.2 742.7C228.7 750.7 212.3 792.3 196 805.2C179.7 818 163.3 802 147 805.2C130.7 808.3 114.3 830.7 98 846.7C81.7 862.7 65.3 872.3 49 867.7C32.7 863 16.3 844 8.2 834.5L0 825Z" fill="#7e00ba"></path></svg>